<svg width="83" height="32" viewBox="0 0 83 32" fill="none" xmlns="http://www.w3.org/2000/svg">
<path d="M5.40625 3.625V15H4.44531V3.625H5.40625ZM10.7031 8.85938V9.6875H5.08594V8.85938H10.7031ZM11.4922 3.625V4.45312H5.08594V3.625H11.4922Z" fill="#18534F"/>
<path d="M14.2437 6.75V15H13.9537V6.75H14.2437ZM18.68 12.207V11.9814C18.68 11.5553 18.7409 11.165 18.8626 10.8105C18.9879 10.4561 19.1616 10.1499 19.3836 9.89209C19.6092 9.63428 19.8778 9.43555 20.1893 9.2959C20.5008 9.15267 20.8446 9.08105 21.2205 9.08105C21.6001 9.08105 21.9456 9.15267 22.2571 9.2959C22.5687 9.43555 22.8372 9.63428 23.0628 9.89209C23.2884 10.1499 23.4621 10.4561 23.5838 10.8105C23.7056 11.165 23.7664 11.5553 23.7664 11.9814V12.207C23.7664 12.6331 23.7056 13.0234 23.5838 13.3779C23.4621 13.7324 23.2884 14.0386 23.0628 14.2964C22.8408 14.5542 22.574 14.7547 22.2625 14.8979C21.951 15.0376 21.6072 15.1074 21.2313 15.1074C20.8517 15.1074 20.5062 15.0376 20.1946 14.8979C19.8831 14.7547 19.6146 14.5542 19.389 14.2964C19.1634 14.0386 18.9879 13.7324 18.8626 13.3779C18.7409 13.0234 18.68 12.6331 18.68 12.207ZM18.97 11.9814V12.207C18.97 12.5544 19.0202 12.8856 19.1204 13.2007C19.2243 13.5122 19.3729 13.7897 19.5662 14.0332C19.7596 14.2767 19.9959 14.4683 20.2752 14.6079C20.5545 14.7476 20.8732 14.8174 21.2313 14.8174C21.5858 14.8174 21.9009 14.7476 22.1766 14.6079C22.4559 14.4683 22.6922 14.2767 22.8856 14.0332C23.0789 13.7897 23.2257 13.5122 23.326 13.2007C23.4263 12.8856 23.4764 12.5544 23.4764 12.207V11.9814C23.4764 11.6413 23.4263 11.3154 23.326 11.0039C23.2257 10.6924 23.0771 10.4149 22.8802 10.1714C22.6868 9.92432 22.4505 9.72917 22.1712 9.58594C21.8919 9.44271 21.575 9.37109 21.2205 9.37109C20.866 9.37109 20.5491 9.44271 20.2698 9.58594C19.9941 9.72917 19.7578 9.92432 19.5609 10.1714C19.3675 10.4149 19.2207 10.6924 19.1204 11.0039C19.0202 11.3154 18.97 11.6413 18.97 11.9814ZM28.4391 10.1982V15H28.149V9.18848H28.4391V10.1982ZM30.7433 9.14014L30.711 9.39795C30.6537 9.39079 30.5929 9.38363 30.5284 9.37646C30.4675 9.3693 30.4031 9.36572 30.3351 9.36572C30.0092 9.36572 29.7228 9.43197 29.4757 9.56445C29.2322 9.69694 29.0281 9.87956 28.8634 10.1123C28.7022 10.3451 28.5805 10.6136 28.4981 10.918C28.4194 11.2188 28.38 11.541 28.38 11.8848L28.1866 11.9009C28.1866 11.4927 28.2296 11.1167 28.3155 10.7729C28.405 10.4292 28.5375 10.132 28.713 9.88135C28.892 9.62712 29.1158 9.43018 29.3844 9.29053C29.6565 9.15088 29.9734 9.08105 30.3351 9.08105C30.4246 9.08105 30.5034 9.08643 30.5714 9.09717C30.6394 9.10791 30.6967 9.12223 30.7433 9.14014ZM35.1635 9.18848V15H34.8734V9.18848H35.1635ZM34.723 7.37305C34.723 7.29069 34.7517 7.22087 34.809 7.16357C34.8663 7.1027 34.9361 7.07227 35.0184 7.07227C35.1008 7.07227 35.1706 7.1027 35.2279 7.16357C35.2888 7.22087 35.3192 7.29069 35.3192 7.37305C35.3192 7.4554 35.2888 7.52523 35.2279 7.58252C35.1706 7.63981 35.1008 7.66846 35.0184 7.66846C34.9361 7.66846 34.8663 7.63981 34.809 7.58252C34.7517 7.52523 34.723 7.4554 34.723 7.37305ZM40.3302 10.4292V15H40.0402V9.18848H40.3302V10.4292ZM40.2819 11.5947L40.1261 11.2886C40.1619 11.0021 40.2407 10.7282 40.3625 10.4668C40.4842 10.2018 40.6435 9.96549 40.8405 9.75781C41.0374 9.55013 41.2666 9.38542 41.528 9.26367C41.7894 9.14193 42.0776 9.08105 42.3927 9.08105C42.6864 9.08105 42.9477 9.12223 43.1769 9.20459C43.4061 9.28337 43.5994 9.41048 43.757 9.58594C43.9145 9.75781 44.0345 9.97982 44.1169 10.252C44.1992 10.5241 44.2404 10.8535 44.2404 11.2402V15H43.9504V11.2402C43.9504 10.7461 43.8823 10.3647 43.7463 10.0962C43.6138 9.82406 43.4294 9.63428 43.193 9.52686C42.9567 9.41943 42.6846 9.36572 42.3766 9.36572C42.0114 9.36572 41.6981 9.44808 41.4367 9.61279C41.1789 9.77393 40.9658 9.97624 40.7975 10.2197C40.6328 10.4632 40.5075 10.7103 40.4215 10.9609C40.3392 11.2116 40.2926 11.4229 40.2819 11.5947ZM51.1259 15.1074C50.7714 15.1074 50.4402 15.0376 50.1323 14.8979C49.8243 14.7547 49.554 14.5542 49.3212 14.2964C49.0885 14.0386 48.9059 13.7342 48.7734 13.3833C48.6445 13.0288 48.58 12.6403 48.58 12.2178V11.9814C48.58 11.5553 48.6427 11.1668 48.768 10.8159C48.8969 10.4614 49.0724 10.1553 49.2944 9.89746C49.52 9.63607 49.7796 9.43555 50.0732 9.2959C50.3668 9.15267 50.6819 9.08105 51.0185 9.08105C51.3408 9.08105 51.6362 9.14193 51.9047 9.26367C52.1733 9.38184 52.406 9.55013 52.603 9.76855C52.8035 9.98698 52.9575 10.2484 53.0649 10.5527C53.1723 10.8571 53.226 11.1937 53.226 11.5625V11.9009H48.768V11.6108H52.936V11.541C52.936 11.1507 52.8572 10.7926 52.6996 10.4668C52.5421 10.1374 52.3201 9.8724 52.0336 9.67188C51.7472 9.47135 51.4088 9.37109 51.0185 9.37109C50.6962 9.37109 50.4026 9.43913 50.1376 9.5752C49.8762 9.71126 49.6507 9.89925 49.4609 10.1392C49.2711 10.3755 49.1243 10.6512 49.0205 10.9663C48.9202 11.2814 48.8701 11.6198 48.8701 11.9814V12.2178C48.8701 12.5794 48.9274 12.9178 49.0419 13.2329C49.1565 13.548 49.3159 13.8255 49.52 14.0654C49.7241 14.3018 49.9622 14.488 50.2343 14.624C50.51 14.7565 50.8072 14.8228 51.1259 14.8228C51.4589 14.8228 51.7687 14.7673 52.0551 14.6562C52.3452 14.5452 52.6101 14.334 52.85 14.0225L53.0541 14.1675C52.9252 14.3501 52.7695 14.513 52.5869 14.6562C52.4078 14.7959 52.1966 14.9069 51.9531 14.9893C51.7132 15.068 51.4374 15.1074 51.1259 15.1074Z" fill="black"/>
<path d="M4.39773 14.2727H5.45455V20.5114C5.45455 21.0682 5.35227 21.5412 5.14773 21.9304C4.94318 22.3196 4.65483 22.6151 4.28267 22.8168C3.91051 23.0185 3.47159 23.1193 2.96591 23.1193C2.48864 23.1193 2.06392 23.0327 1.69176 22.8594C1.3196 22.6832 1.02699 22.4332 0.81392 22.1094C0.600852 21.7855 0.494318 21.4006 0.494318 20.9545H1.53409C1.53409 21.2017 1.59517 21.4176 1.71733 21.6023C1.84233 21.7841 2.01278 21.9261 2.22869 22.0284C2.4446 22.1307 2.69034 22.1818 2.96591 22.1818C3.26989 22.1818 3.52841 22.1179 3.74148 21.9901C3.95455 21.8622 4.11648 21.6747 4.22727 21.4276C4.34091 21.1776 4.39773 20.8722 4.39773 20.5114V14.2727Z" fill="#18534F"/>
<path d="M9.70517 23.1491C9.31028 23.1491 8.94949 23.0724 8.62278 22.919C8.29608 22.7628 8.03614 22.5384 7.84295 22.2457C7.64977 21.9503 7.55318 21.5923 7.55318 21.1719C7.55318 20.848 7.61426 20.5753 7.73642 20.3537C7.85858 20.1321 8.03188 19.9503 8.25631 19.8082C8.48074 19.6662 8.74636 19.554 9.05318 19.4716C9.36 19.3892 9.69807 19.3253 10.0674 19.2798C10.4339 19.2344 10.7435 19.1946 10.9964 19.1605C11.252 19.1264 11.4466 19.0724 11.5802 18.9986C11.7137 18.9247 11.7805 18.8054 11.7805 18.6406V18.4872C11.7805 18.0412 11.6469 17.6903 11.3799 17.4347C11.1157 17.1761 10.735 17.0469 10.2378 17.0469C9.76625 17.0469 9.38131 17.1506 9.08301 17.358C8.78756 17.5653 8.58017 17.8097 8.46085 18.0909L7.74068 17.831C7.88841 17.473 8.09295 17.1875 8.35432 16.9744C8.61568 16.7585 8.9083 16.6037 9.23216 16.5099C9.55602 16.4134 9.88415 16.3651 10.2165 16.3651C10.4665 16.3651 10.7265 16.3977 10.9964 16.4631C11.2691 16.5284 11.5219 16.642 11.7549 16.804C11.9878 16.9631 12.1768 17.1861 12.3216 17.473C12.4665 17.7571 12.539 18.1179 12.539 18.5554V23H11.7805V21.9645H11.7336C11.6427 22.1577 11.5077 22.3452 11.3288 22.527C11.1498 22.7088 10.9253 22.858 10.6555 22.9744C10.3856 23.0909 10.0688 23.1491 9.70517 23.1491ZM9.80744 22.4545C10.2109 22.4545 10.5603 22.3651 10.8557 22.1861C11.1512 22.0071 11.3785 21.7699 11.5376 21.4744C11.6995 21.1761 11.7805 20.848 11.7805 20.4901V19.544C11.7236 19.598 11.6285 19.6463 11.4949 19.6889C11.3643 19.7315 11.2123 19.7699 11.039 19.804C10.8685 19.8352 10.6981 19.8622 10.5276 19.8849C10.3572 19.9077 10.2038 19.9276 10.0674 19.9446C9.69807 19.9901 9.38273 20.0611 9.12136 20.1577C8.86 20.2543 8.65972 20.3878 8.52051 20.5582C8.38131 20.7259 8.3117 20.9418 8.3117 21.206C8.3117 21.6037 8.45375 21.9119 8.73784 22.1307C9.02193 22.3466 9.37847 22.4545 9.80744 22.4545ZM17.5936 23.1364C17.0083 23.1364 16.4984 22.9901 16.0637 22.6974C15.6319 22.4048 15.2967 22.0043 15.058 21.4957C14.8194 20.9872 14.7001 20.4077 14.7001 19.7571C14.7001 19.1009 14.8208 18.517 15.0623 18.0057C15.3066 17.4943 15.6447 17.0937 16.0765 16.804C16.5083 16.5114 17.0097 16.3651 17.5808 16.3651C18.0183 16.3651 18.4146 16.4503 18.7697 16.6207C19.1248 16.7884 19.4174 17.0256 19.6475 17.3324C19.8805 17.6364 20.0268 17.9915 20.0864 18.3977H19.3194C19.2399 18.0284 19.0481 17.7131 18.7441 17.4517C18.443 17.1875 18.0595 17.0554 17.5936 17.0554C17.1759 17.0554 16.8066 17.169 16.4856 17.3963C16.1646 17.6207 15.9132 17.9347 15.7313 18.3381C15.5524 18.7386 15.4629 19.2031 15.4629 19.7315C15.4629 20.2628 15.5509 20.733 15.7271 21.142C15.9032 21.5483 16.1504 21.8665 16.4686 22.0966C16.7896 22.3267 17.1646 22.4418 17.5936 22.4418C17.8833 22.4418 18.1475 22.3878 18.3862 22.2798C18.6276 22.169 18.8293 22.0128 18.9913 21.8111C19.1561 21.6094 19.2668 21.3693 19.3237 21.0909H20.0907C20.0339 21.4858 19.8933 21.8381 19.6688 22.1477C19.4472 22.4545 19.1589 22.696 18.8038 22.8722C18.4515 23.0483 18.0481 23.1364 17.5936 23.1364ZM26.6325 25.4545V21.7855H26.5643C26.4762 21.9844 26.3512 22.1889 26.1893 22.3991C26.0274 22.6065 25.8129 22.7812 25.5459 22.9233C25.2788 23.0653 24.9478 23.1364 24.553 23.1364C24.0189 23.1364 23.5487 22.9943 23.1424 22.7102C22.739 22.4261 22.4237 22.0298 22.1964 21.5213C21.972 21.0128 21.8598 20.4205 21.8598 19.7443C21.8598 19.071 21.972 18.4815 22.1964 17.9759C22.4237 17.4673 22.7405 17.0724 23.1467 16.7912C23.553 16.5071 24.026 16.3651 24.5657 16.3651C24.9663 16.3651 25.2973 16.4361 25.5586 16.5781C25.8228 16.7202 26.0345 16.8949 26.1936 17.1023C26.3527 17.3068 26.4762 17.5071 26.5643 17.7031H26.6538V16.4545H27.3953V25.4545H26.6325ZM24.6424 22.4418C25.0657 22.4418 25.4265 22.3267 25.7248 22.0966C26.0231 21.8636 26.2504 21.544 26.4066 21.1378C26.5657 20.7287 26.6453 20.2599 26.6453 19.7315C26.6453 19.2088 26.5672 18.7472 26.4109 18.3466C26.2547 17.9432 26.0274 17.6278 25.7291 17.4006C25.4336 17.1705 25.0714 17.0554 24.6424 17.0554C24.2049 17.0554 23.8356 17.1747 23.5345 17.4134C23.2334 17.6491 23.0061 17.9687 22.8527 18.3722C22.6993 18.7756 22.6226 19.2287 22.6226 19.7315C22.6226 20.2401 22.7007 20.6989 22.8569 21.108C23.0132 21.517 23.2419 21.8423 23.543 22.0838C23.8441 22.3224 24.2106 22.4418 24.6424 22.4418ZM34.0308 20.4986V16.4545H34.7893V23H34.0308V21.9134H33.9712C33.8178 22.2486 33.5749 22.5284 33.2425 22.7528C32.9101 22.9744 32.5038 23.0852 32.0237 23.0852C31.6061 23.0852 31.2354 22.9943 30.9115 22.8125C30.5876 22.6278 30.3334 22.358 30.1487 22.0028C29.9641 21.6477 29.8717 21.2116 29.8717 20.6946V16.4545H30.6303V20.6477C30.6303 21.1591 30.7808 21.571 31.082 21.8835C31.3831 22.1932 31.7695 22.348 32.2411 22.348C32.5365 22.348 32.8206 22.277 33.0933 22.1349C33.3661 21.9929 33.5905 21.7855 33.7666 21.5128C33.9428 21.2372 34.0308 20.8991 34.0308 20.4986ZM39.1056 23.1491C38.7108 23.1491 38.35 23.0724 38.0233 22.919C37.6965 22.7628 37.4366 22.5384 37.2434 22.2457C37.0502 21.9503 36.9536 21.5923 36.9536 21.1719C36.9536 20.848 37.0147 20.5753 37.1369 20.3537C37.259 20.1321 37.4323 19.9503 37.6568 19.8082C37.8812 19.6662 38.1468 19.554 38.4536 19.4716C38.7605 19.3892 39.0985 19.3253 39.4679 19.2798C39.8343 19.2344 40.144 19.1946 40.3968 19.1605C40.6525 19.1264 40.8471 19.0724 40.9806 18.9986C41.1142 18.9247 41.1809 18.8054 41.1809 18.6406V18.4872C41.1809 18.0412 41.0474 17.6903 40.7804 17.4347C40.5161 17.1761 40.1355 17.0469 39.6383 17.0469C39.1667 17.0469 38.7818 17.1506 38.4835 17.358C38.188 17.5653 37.9806 17.8097 37.8613 18.0909L37.1411 17.831C37.2889 17.473 37.4934 17.1875 37.7548 16.9744C38.0161 16.7585 38.3088 16.6037 38.6326 16.5099C38.9565 16.4134 39.2846 16.3651 39.617 16.3651C39.867 16.3651 40.1269 16.3977 40.3968 16.4631C40.6696 16.5284 40.9224 16.642 41.1554 16.804C41.3883 16.9631 41.5772 17.1861 41.7221 17.473C41.867 17.7571 41.9394 18.1179 41.9394 18.5554V23H41.1809V21.9645H41.134C41.0431 22.1577 40.9082 22.3452 40.7292 22.527C40.5502 22.7088 40.3258 22.858 40.0559 22.9744C39.786 23.0909 39.4693 23.1491 39.1056 23.1491ZM39.2079 22.4545C39.6113 22.4545 39.9608 22.3651 40.2562 22.1861C40.5517 22.0071 40.7789 21.7699 40.938 21.4744C41.1 21.1761 41.1809 20.848 41.1809 20.4901V19.544C41.1241 19.598 41.0289 19.6463 40.8954 19.6889C40.7647 19.7315 40.6127 19.7699 40.4394 19.804C40.269 19.8352 40.0985 19.8622 39.9281 19.8849C39.7576 19.9077 39.6042 19.9276 39.4679 19.9446C39.0985 19.9901 38.7832 20.0611 38.5218 20.1577C38.2605 20.2543 38.0602 20.3878 37.921 20.5582C37.7818 20.7259 37.7122 20.9418 37.7122 21.206C37.7122 21.6037 37.8542 21.9119 38.1383 22.1307C38.4224 22.3466 38.7789 22.4545 39.2079 22.4545ZM44.4372 23V16.4545H45.1744V17.4602H45.2298C45.3605 17.1307 45.5878 16.8651 45.9116 16.6634C46.2383 16.4588 46.6077 16.3565 47.0196 16.3565C47.0821 16.3565 47.1517 16.358 47.2284 16.3608C47.3051 16.3636 47.369 16.3665 47.4202 16.3693V17.1406C47.3861 17.1349 47.3264 17.1264 47.2412 17.1151C47.156 17.1037 47.0636 17.098 46.9642 17.098C46.6233 17.098 46.3193 17.1705 46.0523 17.3153C45.7881 17.4574 45.5792 17.6548 45.4258 17.9077C45.2724 18.1605 45.1957 18.4489 45.1957 18.7727V23H44.4372ZM51.3519 23.1364C50.8149 23.1364 50.3448 22.9943 49.9414 22.7102C49.5379 22.4261 49.2226 22.0298 48.9953 21.5213C48.7709 21.0128 48.6587 20.4205 48.6587 19.7443C48.6587 19.071 48.7709 18.4815 48.9953 17.9759C49.2226 17.4673 49.5394 17.0724 49.9456 16.7912C50.3519 16.5071 50.8249 16.3651 51.3646 16.3651C51.7624 16.3651 52.0933 16.4361 52.3575 16.5781C52.6217 16.7173 52.8334 16.8906 52.9925 17.098C53.1516 17.3054 53.2752 17.5071 53.3632 17.7031H53.4314V14.2727H54.1942V23H53.4527V21.7855H53.3632C53.2752 21.9844 53.1502 22.1889 52.9882 22.3991C52.8263 22.6065 52.6118 22.7812 52.3448 22.9233C52.0806 23.0653 51.7496 23.1364 51.3519 23.1364ZM51.4414 22.4418C51.8646 22.4418 52.2254 22.3267 52.5237 22.0966C52.822 21.8636 53.0493 21.544 53.2056 21.1378C53.3646 20.7287 53.4442 20.2599 53.4442 19.7315C53.4442 19.2088 53.3661 18.7472 53.2098 18.3466C53.0536 17.9432 52.8263 17.6278 52.528 17.4006C52.2297 17.1705 51.8675 17.0554 51.4414 17.0554C51.0039 17.0554 50.6345 17.1747 50.3334 17.4134C50.0351 17.6491 49.8078 17.9687 49.6516 18.3722C49.4982 18.7756 49.4215 19.2287 49.4215 19.7315C49.4215 20.2401 49.4996 20.6989 49.6558 21.108C49.8121 21.517 50.0394 21.8423 50.3377 22.0838C50.6388 22.3224 51.0067 22.4418 51.4414 22.4418Z" fill="black"/>
</svg>
